HIERARCHY
ROOT Hips
{
  OFFSET 136.232 102.443 345.725
  CHANNELS 6 Xposition Yposition Zposition Zrotation Xrotation Yrotation
  JOINT RightUpLeg
  {
    OFFSET -8.9458 -8.66707 0.101652
    CHANNELS 3 Zrotation Xrotation Yrotation
    JOINT RightLeg
    {
      OFFSET 0 -44.4227 1.3727
      CHANNELS 3 Zrotation Xrotation Yrotation
      JOINT RightFoot
      {
        OFFSET 0.253549 -42.0924 -1.46059
        CHANNELS 3 Zrotation Xrotation Yrotation
        JOINT RightToes
        {
          OFFSET 0.04 -4.41509 8.4991
          CHANNELS 3 Zrotation Xrotation Yrotation
          End Site
          {
            OFFSET -0.08 -0.137448 9.77979
          }
        }
      }
    }
  }
  JOINT Spine
  {
    OFFSET 0 11.8905 0
    CHANNELS 3 Zrotation Xrotation Yrotation
    JOINT Spine1
    {
      OFFSET 0 25.6574 0.127663
      CHANNELS 3 Zrotation Xrotation Yrotation
      JOINT HEad
      {
        OFFSET 0 8.73416 0.011341
        CHANNELS 3 Zrotation Xrotation Yrotation
        End Site
        {
          OFFSET -0.29 12.7742 2.51395
        }
      }
      JOINT LeftShoulder1
      {
        OFFSET 8.99 -0.362252 -0.22
        CHANNELS 3 Zrotation Xrotation Yrotation
        JOINT LeftArm
        {
          OFFSET 10.2827 -0.00338 0.322123
          CHANNELS 3 Zrotation Xrotation Yrotation
          JOINT LeftForeArm
          {
            OFFSET 32.7669 0.099144 -1.42434
            CHANNELS 3 Zrotation Xrotation Yrotation
            JOINT LeftHand
            {
              OFFSET 27.5643 0.085362 1.02216
              CHANNELS 3 Zrotation Xrotation Yrotation
              End Site
              {
                OFFSET 16.7443 -0.6 1.50291
              }
            }
          }
        }
      }
      JOINT RightShoulder
      {
        OFFSET -8.99 -0.362252 -0.22
        CHANNELS 3 Zrotation Xrotation Yrotation
        JOINT RightArm
        {
          OFFSET -10.2827 -0.00338 0.322123
          CHANNELS 3 Zrotation Xrotation Yrotation
          JOINT RightForeArm
          {
            OFFSET -32.8971 0.099144 -1.42434
            CHANNELS 3 Zrotation Xrotation Yrotation
            JOINT RightHand
            {
              OFFSET -27.4921 0.085362 1.02216
              CHANNELS 3 Zrotation Xrotation Yrotation
              End Site
              {
                OFFSET -16.6312 -0.6 1.50291
              }
            }
          }
        }
      }
    }
  }
  JOINT LeftUpLeg
  {
    OFFSET 8.9458 -8.66707 0.101652
    CHANNELS 3 Zrotation Xrotation Yrotation
    JOINT LeftLeg
    {
      OFFSET 0 -44.4227 1.3727
      CHANNELS 3 Zrotation Xrotation Yrotation
      JOINT LeftFoot
      {
        OFFSET -0.253549 -42.0924 -1.46059
        CHANNELS 3 Zrotation Xrotation Yrotation
        JOINT LeftToes
        {
          OFFSET -0.04 -4.41509 8.4991
          CHANNELS 3 Zrotation Xrotation Yrotation
          End Site
          {
            OFFSET 0.08 -0.047448 9.77979
          }
        }
      }
    }
  }
}
MOTION
Frames:	14
Frame Time:	0.0166667
-23.732	60.8289	31.455	-6.66201	-11.5854	167.169	-98.4087	-34.4777	-85.2683	26.6727	65.0928	-23.3847	10.0092	1.46226	-0.958102	4.62E-02	5.34E-04	6.63E-01	0.062131	2.97058	1.01694	0.0715057	5.94456	2.03452	7.78677	41.9262	14.1707	-3.18E-15	0.00E+00	0.00E+00	-31.3947	20.1338	0.52474	-1.72245	-10.1486	-109.526	-7.00726	9.9359	4.07677	-3.18E-15	0.00E+00	0.00E+00	40.7621	39.1462	34.7629	-29.4745	-12.3171	60.9033	32.2037	19.95	-13.8051	135.96	-7.50E+01	135.718	-39.3478	72.5331	10.3961	-4.4556	0.696897	-6.42568	1.43E-14	3.18E-14	9.54E-15
-23.745	60.8197	31.453	-6.69313	-11.6134	167.157	-98.4672	-34.4216	-85.3684	26.7187	65.0837	-23.411	9.97963	1.47633	-0.959348	4.62E-02	5.34E-04	0.662642	0.0787681	3.02389	1.05396	0.101931	6.05149	2.10793	8.1216	41.5662	13.8314	-1.19E-15	0.00E+00	0.00E+00	-30.4044	20.3259	2.63045	-1.80113	-9.18437	-109.603	-6.23469	9.90238	3.8357	-1.19E-15	0.00E+00	0.00E+00	40.7681	38.7727	34.5621	-29.6262	-12.4445	60.9863	32.2507	19.9564	-13.8159	1.36E+02	-7.49E+01	1.36E+02	-39.552	72.5531	10.5758	-4.43298	0.691692	-6.44718	1.67E-14	3.10E-14	9.54E-15
-23.756	60.8062	31.449	-6.72185	-11.6607	167.154	-98.5348	-34.3494	-85.4816	26.802	65.077	-23.4847	9.94391	1.48482	-0.951105	4.62E-02	5.34E-04	6.63E-01	0.0945612	3.07366	1.0887	0.130789	6.15135	2.17678	8.4594	41.1978	13.4728	0.00E+00	6.36E-15	0.00E+00	-29.5133	20.3093	4.88646	-2.81223	-7.67305	-109.694	-4.86603	9.88698	4.07137	0.00E+00	6.36E-15	0.00E+00	40.8261	38.394	34.3226	-29.7675	-12.5597	61.0892	32.3406	19.9305	-13.8607	1.36E+02	-7.48E+01	135.824	-39.7449	72.58	10.7402	-4.40563	0.680981	-6.46198	1.19E-14	2.78E-14	3.18E-15
-23.766	60.7876	31.447	-6.75267	-11.7154	167.169	-98.6122	-34.2539	-85.5816	26.9427	65.0646	-23.6241	9.90358	1.49255	-0.938229	4.62E-02	5.34E-04	6.63E-01	0.10771	3.12675	1.13597	0.153537	6.25781	2.27088	8.83453	40.806	13.0536	3.18E-15	-3.18E-15	-1.59E-15	-28.5662	20.0641	7.17966	-4.791	-5.5393	-109.8	-3.01912	9.67775	4.75757	3.18E-15	-3.18E-15	-1.59E-15	40.9149	37.952	34.0374	-29.8685	-12.6459	61.2177	32.4592	19.8793	-13.9349	1.36E+02	-7.47E+01	135.998	-39.893	72.6221	10.8651	-4.36872	0.668577	-6.46188	1.75E-14	3.34E-14	1.27E-14
-23.778	60.7677	31.443	-6.79595	-11.7763	167.227	-98.6963	-34.104	-85.6686	27.0911	65.0416	-23.7743	9.8705	1.49671	-0.925037	4.62E-02	5.34E-04	6.63E-01	0.121987	3.19135	1.18407	0.178176	6.38732	2.3666	9.2473	40.3613	12.5662	-1.19E-15	3.18E-15	0.00E+00	-27.5909	19.7953	9.38951	-7.06127	-3.07089	-109.757	-0.900235	9.29775	5.78296	-1.19E-15	3.18E-15	0.00E+00	40.9296	37.4584	33.8011	-29.9219	-12.7283	61.3225	32.607	19.8454	-14.011	1.36E+02	-7.46E+01	136.329	-40.0103	72.6739	10.9615	-4.34487	0.660899	-6.51946	1.59E-14	2.78E-14	9.54E-15
-23.794	60.7517	31.439	-6.83179	-11.8086	167.294	-98.7533	-33.9573	-85.7163	27.2111	65.0246	-23.8938	9.84652	1.49805	-0.922226	4.62E-02	5.34E-04	6.63E-01	0.141477	3.25432	1.2242	0.213651	6.5137	2.44601	9.64169	39.9474	12.0806	3.98E-16	0.00E+00	0.00E+00	-26.6618	19.7533	11.5444	-9.05621	-0.617566	-109.558	0.911093	9.07924	6.94123	3.98E-16	0.00E+00	0.00E+00	40.8704	37.0168	33.6006	-29.9072	-12.8174	61.385	32.7045	19.8565	-14.0227	1.36E+02	-7.46E+01	1.37E+02	-40.1092	72.7399	11.0381	-4.31661	0.643589	-6.55292	1.67E-14	2.86E-14	9.54E-15
-23.813	60.7369	31.437	-6.84352	-11.8386	167.347	-98.7905	-33.8526	-85.7514	27.2863	65.0159	-23.9636	9.84637	1.49843	-0.935838	4.62E-02	5.34E-04	6.63E-01	0.165184	3.30359	1.27246	0.257324	6.6128	2.54146	10.0013	39.5838	11.6261	3.98E-16	3.18E-15	3.18E-15	-25.9313	20.1003	13.6962	-10.3878	1.51843	-109.428	2.02013	9.27001	8.05024	3.98E-16	3.18E-15	3.18E-15	40.8733	36.5909	33.3644	-29.8315	-12.881	61.4183	32.7251	19.8628	-13.969	136.552	-7.45E+01	136.812	-40.1891	72.8151	11.0894	-4.31052	0.631328	-6.67535	1.75E-14	3.02E-14	1.59E-14
-23.833	60.7165	31.432	-6.83841	-11.8833	167.363	-98.8271	-33.8072	-85.7818	27.3701	65.0031	-24.0327	9.85984	1.49809	-0.958656	4.62E-02	5.34E-04	6.63E-01	0.184373	3.32801	1.32867	0.291967	6.66217	2.65307	10.3093	39.2987	11.2808	3.58E-15	0.00E+00	0.00E+00	-25.4331	20.838	15.9013	-10.9926	3.23924	-109.57	2.33277	9.71544	8.86804	3.58E-15	0.00E+00	0.00E+00	41.0337	36.2084	33.0983	-29.7705	-12.8647	61.4242	32.7405	19.81	-13.9485	1.37E+02	-7.44E+01	1.37E+02	-40.244	72.9037	11.1149	-4.27539	0.610523	-6.6732	1.43E-14	3.02E-14	9.54E-15
-23.851	60.6946	31.426	-6.84384	-11.9148	167.367	-98.8676	-33.7877	-85.766	27.4769	64.9759	-24.1307	9.88006	1.49726	-0.977956	4.62E-02	5.34E-04	6.63E-01	0.194756	3.34819	1.3936	0.308495	6.70289	2.78268	10.628	39.0759	10.9624	-1.99E-15	0.00E+00	3.18E-15	-25.1015	21.8828	17.9468	-11.0389	4.67687	-109.867	2.44815	10.1384	9.14921	-1.99E-15	0.00E+00	3.18E-15	41.3164	35.8581	32.7995	-29.7932	-12.7881	61.4025	32.8121	19.7381	-13.9941	1.37E+02	-7.43E+01	1.37E+02	-40.2687	72.99	11.1037	-4.25589	0.597658	-6.7395	1.27E-14	3.10E-14	0.00E+00
-23.865	60.6782	31.422	-6.87267	-11.9342	167.392	-98.9194	-33.7461	-85.7185	27.5932	64.9424	-24.2539	9.89995	1.49619	-0.98497	4.62E-02	5.34E-04	6.63E-01	0.19897	3.37979	1.44671	0.313022	6.7663	2.88894	10.9489	38.8473	10.6558	1.59E-15	6.36E-15	0.00E+00	-24.9573	23.0278	19.8722	-10.8799	6.12544	-110.27	2.78268	10.4299	8.95116	1.59E-15	6.36E-15	0.00E+00	41.549	35.5318	32.5514	-29.8731	-12.6858	61.4002	32.9275	19.6991	-14.0825	1.37E+02	-7.43E+01	137.2	-40.289	73.0626	11.0754	-4.23055	0.580384	-6.75343	1.43E-14	3.02E-14	0.00E+00
-23.875	60.6668	31.419	-6.92163	-11.9505	167.443	-98.9868	-33.6661	-85.6589	27.7581	64.9067	-24.4346	9.9006	1.49512	-0.981409	4.62E-02	5.34E-04	6.63E-01	0.201948	3.40245	1.49611	0.315467	6.81178	2.98786	11.2912	38.6384	10.3218	3.98E-16	3.18E-15	3.18E-15	-24.9612	24.2533	21.6801	-10.5562	7.74675	-110.732	3.67778	10.3781	8.45027	3.98E-16	3.18E-15	3.18E-15	41.7228	35.2146	32.2891	-29.977	-12.524	61.4585	33.0342	19.707	-14.1682	1.37E+02	-74.2446	1.37E+02	-40.3129	73.1179	11.0526	-4.20347	0.562742	-6.75054	1.67E-14	3.10E-14	1.59E-14
-23.881	60.6565	31.418	-6.97915	-11.9554	167.523	-99.0595	-33.5513	-85.573	27.9666	64.8709	-24.6639	9.89418	1.49428	-0.971377	4.62E-02	5.34E-04	6.63E-01	0.209115	3.42062	1.53638	0.326941	6.84838	3.0682	11.6009	38.4525	9.99579	-2.78E-15	3.18E-15	-1.59E-15	-25.041	25.363	23.4218	-10.2024	9.70857	-111.255	5.01974	10.1385	7.77326	-2.78E-15	3.18E-15	-1.59E-15	41.7635	34.9872	32.1062	-30.0665	-12.3912	61.4881	33.0886	19.769	-14.1968	1.37E+02	-7.43E+01	1.38E+02	-40.3258	73.1726	11.0278	-4.20626	0.556357	-6.89203	1.51E-14	3.26E-14	-3.18E-15
-23.882	60.6495	31.425	-7.01004	-11.9131	167.61	-99.0834	-33.4486	-85.4301	28.1753	64.8464	-24.893	9.88154	1.4939	-0.966129	4.62E-02	5.34E-04	6.63E-01	0.219972	3.43154	1.57922	0.34583	6.87061	3.15346	11.8906	38.3309	9.70744	-1.59E-15	3.18E-15	1.59E-15	-25.2006	26.4186	25.087	-9.80788	11.8113	-111.874	6.50435	9.74639	7.0003	-1.59E-15	3.18E-15	1.59E-15	41.7551	34.8883	31.9729	-30.0669	-12.3165	61.4557	33.0399	19.8496	-14.1563	136.707	-74.3056	137.758	-40.3194	73.2336	10.9884	-4.17703	0.545513	-6.90499	1.51E-14	3.10E-14	1.27E-14
-23.883	60.6447	31.436	-7.00023	-11.8637	167.742	-99.0556	-33.3228	-85.2756	28.3304	64.834	-25.0638	9.87607	1.49397	-0.971386	4.62E-02	5.34E-04	6.63E-01	0.235951	3.43623	1.61612	0.375509	6.8805	3.22651	12.1775	38.2358	9.45959	1.19E-15	0.00E+00	-7.95E-16	-25.5014	27.4394	26.6497	-8.87326	13.8028	-112.691	8.2466	9.46429	6.1442	1.19E-15	0.00E+00	-7.95E-16	41.7329	34.8552	31.892	-29.9218	-12.3137	61.3677	32.8685	19.8985	-14.0653	1.37E+02	-7.44E+01	137.955	-40.3298	73.2962	10.9558	-4.14416	0.53944	-6.93258	1.59E-14	3.26E-14	0.00E+00
